#define tomato_width 18
#define tomato_height 18
static char tomato_bits[] = {
  0x00, 0x00, 0x00, 0xE0, 0x05, 0x00, 0xF0, 0x0F, 0x00, 0xF8, 0x1F, 0x00, 
  0xFC, 0x3F, 0x00, 0xFC, 0x1F, 0x00, 0xFC, 0x7F, 0x00, 0xFE, 0x37, 0x00, 
  0xFE, 0x5B, 0x00, 0xFE, 0x2F, 0x00, 0x7C, 0x1F, 0x00, 0xFE, 0x25, 0x00, 
  0xF8, 0x1B, 0x00, 0xA0, 0x04, 0x00, 0xA0, 0x02, 0x00, 0x00, 0x00, 0x00, 
  0x00, 0x00, 0x00, 0x00, 0x00, 0x00, };
